<?xml version="1.0" encoding="utf-8" standalone="no"?>
<!DOCTYPE svg PUBLIC "-//W3C//DTD SVG 1.1//EN"
  "http://www.w3.org/Graphics/SVG/1.1/DTD/svg11.dtd">
<svg xmlns:xlink="http://www.w3.org/1999/xlink" width="449.589062pt" height="334.182049pt" viewBox="0 0 449.589062 334.182049" xmlns="http://www.w3.org/2000/svg" version="1.1">
 <metadata>
  <rdf:RDF xmlns:dc="http://purl.org/dc/elements/1.1/" xmlns:cc="http://creativecommons.org/ns#" xmlns:rdf="http://www.w3.org/1999/02/22-rdf-syntax-ns#">
   <cc:Work>
    <dc:type rdf:resource="http://purl.org/dc/dcmitype/StillImage"/>
    <dc:date>2023-11-13T22:59:05.782111</dc:date>
    <dc:format>image/svg+xml</dc:format>
    <dc:creator>
     <cc:Agent>
      <dc:title>Matplotlib v3.6.2, https://matplotlib.org/</dc:title>
     </cc:Agent>
    </dc:creator>
   </cc:Work>
  </rdf:RDF>
 </metadata>
 <defs>
  <style type="text/css">*{stroke-linejoin: round; stroke-linecap: butt}</style>
 </defs>
 <g id="figure_1">
  <g id="patch_1">
   <path d="M 0 334.182049 
L 449.589062 334.182049 
L 449.589062 0 
L 0 0 
z
" style="fill: #ffffff"/>
  </g>
  <g id="axes_1">
   <g id="patch_2">
    <path d="M 44.049063 260.808151 
L 442.389063 260.808151 
L 442.389063 21.935625 
L 44.049063 21.935625 
z
" style="fill: #ffffff"/>
   </g>
   <g id="matplotlib.axis_1">
    <g id="xtick_1">
     <g id="text_1">
      <!-- Alzheimer -->
      <g style="fill: #262626" transform="translate(128.355418 310.45447) rotate(-45) scale(0.11 -0.11)">
       <defs>
        <path id="ArialMT-41" d="M -9 0 
L 1750 4581 
L 2403 4581 
L 4278 0 
L 3588 0 
L 3053 1388 
L 1138 1388 
L 634 0 
L -9 0 
z
M 1313 1881 
L 2866 1881 
L 2388 3150 
Q 2169 3728 2063 4100 
Q 1975 3659 1816 3225 
L 1313 1881 
z
" transform="scale(0.015625)"/>
        <path id="ArialMT-6c" d="M 409 0 
L 409 4581 
L 972 4581 
L 972 0 
L 409 0 
z
" transform="scale(0.015625)"/>
        <path id="ArialMT-7a" d="M 125 0 
L 125 456 
L 2238 2881 
Q 1878 2863 1603 2863 
L 250 2863 
L 250 3319 
L 2963 3319 
L 2963 2947 
L 1166 841 
L 819 456 
Q 1197 484 1528 484 
L 3063 484 
L 3063 0 
L 125 0 
z
" transform="scale(0.015625)"/>
        <path id="ArialMT-68" d="M 422 0 
L 422 4581 
L 984 4581 
L 984 2938 
Q 1378 3394 1978 3394 
Q 2347 3394 2619 3248 
Q 2891 3103 3008 2847 
Q 3125 2591 3125 2103 
L 3125 0 
L 2563 0 
L 2563 2103 
Q 2563 2525 2380 2717 
Q 2197 2909 1863 2909 
Q 1613 2909 1392 2779 
Q 1172 2650 1078 2428 
Q 984 2206 984 1816 
L 984 0 
L 422 0 
z
" transform="scale(0.015625)"/>
        <path id="ArialMT-65" d="M 2694 1069 
L 3275 997 
Q 3138 488 2766 206 
Q 2394 -75 1816 -75 
Q 1088 -75 661 373 
Q 234 822 234 1631 
Q 234 2469 665 2931 
Q 1097 3394 1784 3394 
Q 2450 3394 2872 2941 
Q 3294 2488 3294 1666 
Q 3294 1616 3291 1516 
L 816 1516 
Q 847 969 1125 678 
Q 1403 388 1819 388 
Q 2128 388 2347 550 
Q 2566 713 2694 1069 
z
M 847 1978 
L 2700 1978 
Q 2663 2397 2488 2606 
Q 2219 2931 1791 2931 
Q 1403 2931 1139 2672 
Q 875 2413 847 1978 
z
" transform="scale(0.015625)"/>
        <path id="ArialMT-69" d="M 425 3934 
L 425 4581 
L 988 4581 
L 988 3934 
L 425 3934 
z
M 425 0 
L 425 3319 
L 988 3319 
L 988 0 
L 425 0 
z
" transform="scale(0.015625)"/>
        <path id="ArialMT-6d" d="M 422 0 
L 422 3319 
L 925 3319 
L 925 2853 
Q 1081 3097 1340 3245 
Q 1600 3394 1931 3394 
Q 2300 3394 2536 3241 
Q 2772 3088 2869 2813 
Q 3263 3394 3894 3394 
Q 4388 3394 4653 3120 
Q 4919 2847 4919 2278 
L 4919 0 
L 4359 0 
L 4359 2091 
Q 4359 2428 4304 2576 
Q 4250 2725 4106 2815 
Q 3963 2906 3769 2906 
Q 3419 2906 3187 2673 
Q 2956 2441 2956 1928 
L 2956 0 
L 2394 0 
L 2394 2156 
Q 2394 2531 2256 2718 
Q 2119 2906 1806 2906 
Q 1569 2906 1367 2781 
Q 1166 2656 1075 2415 
Q 984 2175 984 1722 
L 984 0 
L 422 0 
z
" transform="scale(0.015625)"/>
        <path id="ArialMT-72" d="M 416 0 
L 416 3319 
L 922 3319 
L 922 2816 
Q 1116 3169 1280 3281 
Q 1444 3394 1641 3394 
Q 1925 3394 2219 3213 
L 2025 2691 
Q 1819 2813 1613 2813 
Q 1428 2813 1281 2702 
Q 1134 2591 1072 2394 
Q 978 2094 978 1738 
L 978 0 
L 416 0 
z
" transform="scale(0.015625)"/>
       </defs>
       <use xlink:href="#ArialMT-41"/>
       <use xlink:href="#ArialMT-6c" x="66.699219"/>
       <use xlink:href="#ArialMT-7a" x="88.916016"/>
       <use xlink:href="#ArialMT-68" x="138.916016"/>
       <use xlink:href="#ArialMT-65" x="194.53125"/>
       <use xlink:href="#ArialMT-69" x="250.146484"/>
       <use xlink:href="#ArialMT-6d" x="272.363281"/>
       <use xlink:href="#ArialMT-65" x="355.664062"/>
       <use xlink:href="#ArialMT-72" x="411.279297"/>
      </g>
     </g>
    </g>
    <g id="xtick_2">
     <g id="text_2">
      <!-- Parkinson -->
      <g style="fill: #262626" transform="translate(327.521772 310.461762) rotate(-45) scale(0.11 -0.11)">
       <defs>
        <path id="ArialMT-50" d="M 494 0 
L 494 4581 
L 2222 4581 
Q 2678 4581 2919 4538 
Q 3256 4481 3484 4323 
Q 3713 4166 3852 3881 
Q 3991 3597 3991 3256 
Q 3991 2672 3619 2267 
Q 3247 1863 2275 1863 
L 1100 1863 
L 1100 0 
L 494 0 
z
M 1100 2403 
L 2284 2403 
Q 2872 2403 3119 2622 
Q 3366 2841 3366 3238 
Q 3366 3525 3220 3729 
Q 3075 3934 2838 4000 
Q 2684 4041 2272 4041 
L 1100 4041 
L 1100 2403 
z
" transform="scale(0.015625)"/>
        <path id="ArialMT-61" d="M 2588 409 
Q 2275 144 1986 34 
Q 1697 -75 1366 -75 
Q 819 -75 525 192 
Q 231 459 231 875 
Q 231 1119 342 1320 
Q 453 1522 633 1644 
Q 813 1766 1038 1828 
Q 1203 1872 1538 1913 
Q 2219 1994 2541 2106 
Q 2544 2222 2544 2253 
Q 2544 2597 2384 2738 
Q 2169 2928 1744 2928 
Q 1347 2928 1158 2789 
Q 969 2650 878 2297 
L 328 2372 
Q 403 2725 575 2942 
Q 747 3159 1072 3276 
Q 1397 3394 1825 3394 
Q 2250 3394 2515 3294 
Q 2781 3194 2906 3042 
Q 3031 2891 3081 2659 
Q 3109 2516 3109 2141 
L 3109 1391 
Q 3109 606 3145 398 
Q 3181 191 3288 0 
L 2700 0 
Q 2613 175 2588 409 
z
M 2541 1666 
Q 2234 1541 1622 1453 
Q 1275 1403 1131 1340 
Q 988 1278 909 1158 
Q 831 1038 831 891 
Q 831 666 1001 516 
Q 1172 366 1500 366 
Q 1825 366 2078 508 
Q 2331 650 2450 897 
Q 2541 1088 2541 1459 
L 2541 1666 
z
" transform="scale(0.015625)"/>
        <path id="ArialMT-6b" d="M 425 0 
L 425 4581 
L 988 4581 
L 988 1969 
L 2319 3319 
L 3047 3319 
L 1778 2088 
L 3175 0 
L 2481 0 
L 1384 1697 
L 988 1316 
L 988 0 
L 425 0 
z
" transform="scale(0.015625)"/>
        <path id="ArialMT-6e" d="M 422 0 
L 422 3319 
L 928 3319 
L 928 2847 
Q 1294 3394 1984 3394 
Q 2284 3394 2536 3286 
Q 2788 3178 2913 3003 
Q 3038 2828 3088 2588 
Q 3119 2431 3119 2041 
L 3119 0 
L 2556 0 
L 2556 2019 
Q 2556 2363 2490 2533 
Q 2425 2703 2258 2804 
Q 2091 2906 1866 2906 
Q 1506 2906 1245 2678 
Q 984 2450 984 1813 
L 984 0 
L 422 0 
z
" transform="scale(0.015625)"/>
        <path id="ArialMT-73" d="M 197 991 
L 753 1078 
Q 800 744 1014 566 
Q 1228 388 1613 388 
Q 2000 388 2187 545 
Q 2375 703 2375 916 
Q 2375 1106 2209 1216 
Q 2094 1291 1634 1406 
Q 1016 1563 777 1677 
Q 538 1791 414 1992 
Q 291 2194 291 2438 
Q 291 2659 392 2848 
Q 494 3038 669 3163 
Q 800 3259 1026 3326 
Q 1253 3394 1513 3394 
Q 1903 3394 2198 3281 
Q 2494 3169 2634 2976 
Q 2775 2784 2828 2463 
L 2278 2388 
Q 2241 2644 2061 2787 
Q 1881 2931 1553 2931 
Q 1166 2931 1000 2803 
Q 834 2675 834 2503 
Q 834 2394 903 2306 
Q 972 2216 1119 2156 
Q 1203 2125 1616 2013 
Q 2213 1853 2448 1751 
Q 2684 1650 2818 1456 
Q 2953 1263 2953 975 
Q 2953 694 2789 445 
Q 2625 197 2315 61 
Q 2006 -75 1616 -75 
Q 969 -75 630 194 
Q 291 463 197 991 
z
" transform="scale(0.015625)"/>
        <path id="ArialMT-6f" d="M 213 1659 
Q 213 2581 725 3025 
Q 1153 3394 1769 3394 
Q 2453 3394 2887 2945 
Q 3322 2497 3322 1706 
Q 3322 1066 3130 698 
Q 2938 331 2570 128 
Q 2203 -75 1769 -75 
Q 1072 -75 642 372 
Q 213 819 213 1659 
z
M 791 1659 
Q 791 1022 1069 705 
Q 1347 388 1769 388 
Q 2188 388 2466 706 
Q 2744 1025 2744 1678 
Q 2744 2294 2464 2611 
Q 2184 2928 1769 2928 
Q 1347 2928 1069 2612 
Q 791 2297 791 1659 
z
" transform="scale(0.015625)"/>
       </defs>
       <use xlink:href="#ArialMT-50"/>
       <use xlink:href="#ArialMT-61" x="66.699219"/>
       <use xlink:href="#ArialMT-72" x="122.314453"/>
       <use xlink:href="#ArialMT-6b" x="155.615234"/>
       <use xlink:href="#ArialMT-69" x="205.615234"/>
       <use xlink:href="#ArialMT-6e" x="227.832031"/>
       <use xlink:href="#ArialMT-73" x="283.447266"/>
       <use xlink:href="#ArialMT-6f" x="333.447266"/>
       <use xlink:href="#ArialMT-6e" x="389.0625"/>
      </g>
     </g>
    </g>
    <g id="text_3">
     <!-- Disease -->
     <g style="fill: #262626" transform="translate(221.543125 324.597049) scale(0.12 -0.12)">
      <defs>
       <path id="ArialMT-44" d="M 494 0 
L 494 4581 
L 2072 4581 
Q 2606 4581 2888 4516 
Q 3281 4425 3559 4188 
Q 3922 3881 4101 3404 
Q 4281 2928 4281 2316 
Q 4281 1794 4159 1391 
Q 4038 988 3847 723 
Q 3656 459 3429 307 
Q 3203 156 2883 78 
Q 2563 0 2147 0 
L 494 0 
z
M 1100 541 
L 2078 541 
Q 2531 541 2789 625 
Q 3047 709 3200 863 
Q 3416 1078 3536 1442 
Q 3656 1806 3656 2325 
Q 3656 3044 3420 3430 
Q 3184 3816 2847 3947 
Q 2603 4041 2063 4041 
L 1100 4041 
L 1100 541 
z
" transform="scale(0.015625)"/>
      </defs>
      <use xlink:href="#ArialMT-44"/>
      <use xlink:href="#ArialMT-69" x="72.216797"/>
      <use xlink:href="#ArialMT-73" x="94.433594"/>
      <use xlink:href="#ArialMT-65" x="144.433594"/>
      <use xlink:href="#ArialMT-61" x="200.048828"/>
      <use xlink:href="#ArialMT-73" x="255.664062"/>
      <use xlink:href="#ArialMT-65" x="305.664062"/>
     </g>
    </g>
   </g>
   <g id="matplotlib.axis_2">
    <g id="ytick_1">
     <g id="text_4">
      <!-- 45 -->
      <g style="fill: #262626" transform="translate(22.315 260.467616) scale(0.11 -0.11)">
       <defs>
        <path id="ArialMT-34" d="M 2069 0 
L 2069 1097 
L 81 1097 
L 81 1613 
L 2172 4581 
L 2631 4581 
L 2631 1613 
L 3250 1613 
L 3250 1097 
L 2631 1097 
L 2631 0 
L 2069 0 
z
M 2069 1613 
L 2069 3678 
L 634 1613 
L 2069 1613 
z
" transform="scale(0.015625)"/>
        <path id="ArialMT-35" d="M 266 1200 
L 856 1250 
Q 922 819 1161 601 
Q 1400 384 1738 384 
Q 2144 384 2425 690 
Q 2706 997 2706 1503 
Q 2706 1984 2436 2262 
Q 2166 2541 1728 2541 
Q 1456 2541 1237 2417 
Q 1019 2294 894 2097 
L 366 2166 
L 809 4519 
L 3088 4519 
L 3088 3981 
L 1259 3981 
L 1013 2750 
Q 1425 3038 1878 3038 
Q 2478 3038 2890 2622 
Q 3303 2206 3303 1553 
Q 3303 931 2941 478 
Q 2500 -78 1738 -78 
Q 1113 -78 717 272 
Q 322 622 266 1200 
z
" transform="scale(0.015625)"/>
       </defs>
       <use xlink:href="#ArialMT-34"/>
       <use xlink:href="#ArialMT-35" x="55.615234"/>
      </g>
     </g>
    </g>
    <g id="ytick_2">
     <g id="text_5">
      <!-- 50 -->
      <g style="fill: #262626" transform="translate(22.315 227.565064) scale(0.11 -0.11)">
       <defs>
        <path id="ArialMT-30" d="M 266 2259 
Q 266 3072 433 3567 
Q 600 4063 929 4331 
Q 1259 4600 1759 4600 
Q 2128 4600 2406 4451 
Q 2684 4303 2865 4023 
Q 3047 3744 3150 3342 
Q 3253 2941 3253 2259 
Q 3253 1453 3087 958 
Q 2922 463 2592 192 
Q 2263 -78 1759 -78 
Q 1097 -78 719 397 
Q 266 969 266 2259 
z
M 844 2259 
Q 844 1131 1108 757 
Q 1372 384 1759 384 
Q 2147 384 2411 759 
Q 2675 1134 2675 2259 
Q 2675 3391 2411 3762 
Q 2147 4134 1753 4134 
Q 1366 4134 1134 3806 
Q 844 3388 844 2259 
z
" transform="scale(0.015625)"/>
       </defs>
       <use xlink:href="#ArialMT-35"/>
       <use xlink:href="#ArialMT-30" x="55.615234"/>
      </g>
     </g>
    </g>
    <g id="ytick_3">
     <g id="text_6">
      <!-- 55 -->
      <g style="fill: #262626" transform="translate(22.315 194.662513) scale(0.11 -0.11)">
       <use xlink:href="#ArialMT-35"/>
       <use xlink:href="#ArialMT-35" x="55.615234"/>
      </g>
     </g>
    </g>
    <g id="ytick_4">
     <g id="text_7">
      <!-- 60 -->
      <g style="fill: #262626" transform="translate(22.315 161.759961) scale(0.11 -0.11)">
       <defs>
        <path id="ArialMT-36" d="M 3184 3459 
L 2625 3416 
Q 2550 3747 2413 3897 
Q 2184 4138 1850 4138 
Q 1581 4138 1378 3988 
Q 1113 3794 959 3422 
Q 806 3050 800 2363 
Q 1003 2672 1297 2822 
Q 1591 2972 1913 2972 
Q 2475 2972 2870 2558 
Q 3266 2144 3266 1488 
Q 3266 1056 3080 686 
Q 2894 316 2569 119 
Q 2244 -78 1831 -78 
Q 1128 -78 684 439 
Q 241 956 241 2144 
Q 241 3472 731 4075 
Q 1159 4600 1884 4600 
Q 2425 4600 2770 4297 
Q 3116 3994 3184 3459 
z
M 888 1484 
Q 888 1194 1011 928 
Q 1134 663 1356 523 
Q 1578 384 1822 384 
Q 2178 384 2434 671 
Q 2691 959 2691 1453 
Q 2691 1928 2437 2201 
Q 2184 2475 1800 2475 
Q 1419 2475 1153 2201 
Q 888 1928 888 1484 
z
" transform="scale(0.015625)"/>
       </defs>
       <use xlink:href="#ArialMT-36"/>
       <use xlink:href="#ArialMT-30" x="55.615234"/>
      </g>
     </g>
    </g>
    <g id="ytick_5">
     <g id="text_8">
      <!-- 65 -->
      <g style="fill: #262626" transform="translate(22.315 128.857409) scale(0.11 -0.11)">
       <use xlink:href="#ArialMT-36"/>
       <use xlink:href="#ArialMT-35" x="55.615234"/>
      </g>
     </g>
    </g>
    <g id="ytick_6">
     <g id="text_9">
      <!-- 70 -->
      <g style="fill: #262626" transform="translate(22.315 95.954857) scale(0.11 -0.11)">
       <defs>
        <path id="ArialMT-37" d="M 303 3981 
L 303 4522 
L 3269 4522 
L 3269 4084 
Q 2831 3619 2401 2847 
Q 1972 2075 1738 1259 
Q 1569 684 1522 0 
L 944 0 
Q 953 541 1156 1306 
Q 1359 2072 1739 2783 
Q 2119 3494 2547 3981 
L 303 3981 
z
" transform="scale(0.015625)"/>
       </defs>
       <use xlink:href="#ArialMT-37"/>
       <use xlink:href="#ArialMT-30" x="55.615234"/>
      </g>
     </g>
    </g>
    <g id="ytick_7">
     <g id="text_10">
      <!-- 75 -->
      <g style="fill: #262626" transform="translate(22.315 63.052305) scale(0.11 -0.11)">
       <use xlink:href="#ArialMT-37"/>
       <use xlink:href="#ArialMT-35" x="55.615234"/>
      </g>
     </g>
    </g>
    <g id="ytick_8">
     <g id="text_11">
      <!-- 80 -->
      <g style="fill: #262626" transform="translate(22.315 30.149754) scale(0.11 -0.11)">
       <defs>
        <path id="ArialMT-38" d="M 1131 2484 
Q 781 2613 612 2850 
Q 444 3088 444 3419 
Q 444 3919 803 4259 
Q 1163 4600 1759 4600 
Q 2359 4600 2725 4251 
Q 3091 3903 3091 3403 
Q 3091 3084 2923 2848 
Q 2756 2613 2416 2484 
Q 2838 2347 3058 2040 
Q 3278 1734 3278 1309 
Q 3278 722 2862 322 
Q 2447 -78 1769 -78 
Q 1091 -78 675 323 
Q 259 725 259 1325 
Q 259 1772 486 2073 
Q 713 2375 1131 2484 
z
M 1019 3438 
Q 1019 3113 1228 2906 
Q 1438 2700 1772 2700 
Q 2097 2700 2305 2904 
Q 2513 3109 2513 3406 
Q 2513 3716 2298 3927 
Q 2084 4138 1766 4138 
Q 1444 4138 1231 3931 
Q 1019 3725 1019 3438 
z
M 838 1322 
Q 838 1081 952 856 
Q 1066 631 1291 507 
Q 1516 384 1775 384 
Q 2178 384 2440 643 
Q 2703 903 2703 1303 
Q 2703 1709 2433 1975 
Q 2163 2241 1756 2241 
Q 1359 2241 1098 1978 
Q 838 1716 838 1322 
z
" transform="scale(0.015625)"/>
       </defs>
       <use xlink:href="#ArialMT-38"/>
       <use xlink:href="#ArialMT-30" x="55.615234"/>
      </g>
     </g>
    </g>
    <g id="text_12">
     <!-- Age -->
     <g style="fill: #262626" transform="translate(15.789375 152.047201) rotate(-90) scale(0.12 -0.12)">
      <defs>
       <path id="ArialMT-67" d="M 319 -275 
L 866 -356 
Q 900 -609 1056 -725 
Q 1266 -881 1628 -881 
Q 2019 -881 2231 -725 
Q 2444 -569 2519 -288 
Q 2563 -116 2559 434 
Q 2191 0 1641 0 
Q 956 0 581 494 
Q 206 988 206 1678 
Q 206 2153 378 2554 
Q 550 2956 876 3175 
Q 1203 3394 1644 3394 
Q 2231 3394 2613 2919 
L 2613 3319 
L 3131 3319 
L 3131 450 
Q 3131 -325 2973 -648 
Q 2816 -972 2473 -1159 
Q 2131 -1347 1631 -1347 
Q 1038 -1347 672 -1080 
Q 306 -813 319 -275 
z
M 784 1719 
Q 784 1066 1043 766 
Q 1303 466 1694 466 
Q 2081 466 2343 764 
Q 2606 1063 2606 1700 
Q 2606 2309 2336 2618 
Q 2066 2928 1684 2928 
Q 1309 2928 1046 2623 
Q 784 2319 784 1719 
z
" transform="scale(0.015625)"/>
      </defs>
      <use xlink:href="#ArialMT-41"/>
      <use xlink:href="#ArialMT-67" x="66.699219"/>
      <use xlink:href="#ArialMT-65" x="122.314453"/>
     </g>
    </g>
   </g>
   <g id="patch_3">
    <path d="M 143.634063 552.653785 
L 143.634063 552.653785 
L 143.634063 552.653785 
L 143.634063 552.653785 
z
" clip-path="url(#p511a46ef23)" style="fill: #c6c6c6; stroke: #3e3e3e; stroke-width: 0.75; stroke-linejoin: miter"/>
   </g>
   <g id="PolyCollection_1">
    <defs>
     <path id="m34e9e02200" d="M 143.634063 -41.849883 
L 142.999221 -41.849883 
L 142.801799 -44.966055 
L 142.557742 -48.082228 
L 142.260639 -51.1984 
L 141.904446 -54.314572 
L 141.483848 -57.430745 
L 140.994655 -60.546917 
L 140.434194 -63.66309 
L 139.801681 -66.779262 
L 139.098539 -69.895434 
L 138.328622 -73.011607 
L 137.498325 -76.127779 
L 136.616528 -79.243952 
L 135.694373 -82.360124 
L 134.744823 -85.476296 
L 133.782023 -88.592469 
L 132.820445 -91.708641 
L 131.873867 -94.824814 
L 130.954223 -97.940986 
L 130.070415 -101.057158 
L 129.227196 -104.173331 
L 128.424231 -107.289503 
L 127.655499 -110.405676 
L 126.909119 -113.521848 
L 126.167737 -116.63802 
L 125.409482 -119.754193 
L 124.609511 -122.870365 
L 123.742027 -125.986538 
L 122.782625 -129.10271 
L 121.710741 -132.218882 
L 120.511947 -135.335055 
L 119.17981 -138.451227 
L 117.717099 -141.567399 
L 116.136118 -144.683572 
L 114.458107 -147.799744 
L 112.711697 -150.915917 
L 110.930552 -154.032089 
L 109.150416 -157.148261 
L 107.405868 -160.264434 
L 105.727112 -163.380606 
L 104.137162 -166.496779 
L 102.649698 -169.612951 
L 101.267842 -172.729123 
L 99.983957 -175.845296 
L 98.780487 -178.961468 
L 97.631725 -182.077641 
L 96.506309 -185.193813 
L 95.370158 -188.309985 
L 94.189542 -191.426158 
L 92.933971 -194.54233 
L 91.578636 -197.658503 
L 90.106203 -200.774675 
L 88.507868 -203.890847 
L 86.783671 -207.00702 
L 84.942157 -210.123192 
L 82.999562 -213.239365 
L 80.978723 -216.355537 
L 78.907915 -219.471709 
L 76.819791 -222.587882 
L 74.750526 -225.704054 
L 72.739205 -228.820227 
L 70.82739 -231.936399 
L 69.058765 -235.052571 
L 67.478714 -238.168744 
L 66.13368 -241.284916 
L 65.070199 -244.401089 
L 64.333551 -247.517261 
L 63.966063 -250.633433 
L 64.005161 -253.749606 
L 64.481326 -256.865778 
L 65.416151 -259.98195 
L 66.820694 -263.098123 
L 68.694303 -266.214295 
L 71.024021 -269.330468 
L 73.784636 -272.44664 
L 76.939361 -275.562812 
L 80.441088 -278.678985 
L 84.234096 -281.795157 
L 88.256101 -284.91133 
L 92.440508 -288.027502 
L 96.718734 -291.143674 
L 101.022513 -294.259847 
L 105.286064 -297.376019 
L 109.448067 -300.492192 
L 113.453379 -303.608364 
L 117.254427 -306.724536 
L 120.812253 -309.840709 
L 124.097159 -312.956881 
L 127.088956 -316.073054 
L 129.776799 -319.189226 
L 132.158654 -322.305398 
L 134.240423 -325.421571 
L 136.034803 -328.537743 
L 137.55997 -331.653916 
L 138.83816 -334.770088 
L 139.894256 -337.88626 
L 140.754451 -341.002433 
L 141.445064 -344.118605 
L 141.991546 -347.234778 
L 142.417718 -350.35095 
L 143.634063 -350.35095 
L 143.634063 -350.35095 
L 143.634063 -347.234778 
L 143.634063 -344.118605 
L 143.634063 -341.002433 
L 143.634063 -337.88626 
L 143.634063 -334.770088 
L 143.634063 -331.653916 
L 143.634063 -328.537743 
L 143.634063 -325.421571 
L 143.634063 -322.305398 
L 143.634063 -319.189226 
L 143.634063 -316.073054 
L 143.634063 -312.956881 
L 143.634063 -309.840709 
L 143.634063 -306.724536 
L 143.634063 -303.608364 
L 143.634063 -300.492192 
L 143.634063 -297.376019 
L 143.634063 -294.259847 
L 143.634063 -291.143674 
L 143.634063 -288.027502 
L 143.634063 -284.91133 
L 143.634063 -281.795157 
L 143.634063 -278.678985 
L 143.634063 -275.562812 
L 143.634063 -272.44664 
L 143.634063 -269.330468 
L 143.634063 -266.214295 
L 143.634063 -263.098123 
L 143.634063 -259.98195 
L 143.634063 -256.865778 
L 143.634063 -253.749606 
L 143.634063 -250.633433 
L 143.634063 -247.517261 
L 143.634063 -244.401089 
L 143.634063 -241.284916 
L 143.634063 -238.168744 
L 143.634063 -235.052571 
L 143.634063 -231.936399 
L 143.634063 -228.820227 
L 143.634063 -225.704054 
L 143.634063 -222.587882 
L 143.634063 -219.471709 
L 143.634063 -216.355537 
L 143.634063 -213.239365 
L 143.634063 -210.123192 
L 143.634063 -207.00702 
L 143.634063 -203.890847 
L 143.634063 -200.774675 
L 143.634063 -197.658503 
L 143.634063 -194.54233 
L 143.634063 -191.426158 
L 143.634063 -188.309985 
L 143.634063 -185.193813 
L 143.634063 -182.077641 
L 143.634063 -178.961468 
L 143.634063 -175.845296 
L 143.634063 -172.729123 
L 143.634063 -169.612951 
L 143.634063 -166.496779 
L 143.634063 -163.380606 
L 143.634063 -160.264434 
L 143.634063 -157.148261 
L 143.634063 -154.032089 
L 143.634063 -150.915917 
L 143.634063 -147.799744 
L 143.634063 -144.683572 
L 143.634063 -141.567399 
L 143.634063 -138.451227 
L 143.634063 -135.335055 
L 143.634063 -132.218882 
L 143.634063 -129.10271 
L 143.634063 -125.986538 
L 143.634063 -122.870365 
L 143.634063 -119.754193 
L 143.634063 -116.63802 
L 143.634063 -113.521848 
L 143.634063 -110.405676 
L 143.634063 -107.289503 
L 143.634063 -104.173331 
L 143.634063 -101.057158 
L 143.634063 -97.940986 
L 143.634063 -94.824814 
L 143.634063 -91.708641 
L 143.634063 -88.592469 
L 143.634063 -85.476296 
L 143.634063 -82.360124 
L 143.634063 -79.243952 
L 143.634063 -76.127779 
L 143.634063 -73.011607 
L 143.634063 -69.895434 
L 143.634063 -66.779262 
L 143.634063 -63.66309 
L 143.634063 -60.546917 
L 143.634063 -57.430745 
L 143.634063 -54.314572 
L 143.634063 -51.1984 
L 143.634063 -48.082228 
L 143.634063 -44.966055 
L 143.634063 -41.849883 
z
" style="stroke: #3e3e3e; stroke-width: 1.5"/>
    </defs>
    <g clip-path="url(#p511a46ef23)">
     <use xlink:href="#m34e9e02200" x="0" y="334.182049" style="fill: #c6c6c6; stroke: #3e3e3e; stroke-width: 1.5"/>
    </g>
   </g>
   <g id="patch_4">
    <path d="M 143.634063 552.653785 
L 143.634063 552.653785 
L 143.634063 552.653785 
L 143.634063 552.653785 
z
" clip-path="url(#p511a46ef23)" style="fill: #686868; stroke: #3e3e3e; stroke-width: 0.75; stroke-linejoin: miter"/>
   </g>
   <g id="PolyCollection_2">
    <defs>
     <path id="macf9f93e9c" d="M 345.447372 -28.167217 
L 342.804063 -28.167217 
L 342.804063 -31.493337 
L 342.804063 -34.819457 
L 342.804063 -38.145577 
L 342.804063 -41.471697 
L 342.804063 -44.797817 
L 342.804063 -48.123937 
L 342.804063 -51.450057 
L 342.804063 -54.776177 
L 342.804063 -58.102298 
L 342.804063 -61.428418 
L 342.804063 -64.754538 
L 342.804063 -68.080658 
L 342.804063 -71.406778 
L 342.804063 -74.732898 
L 342.804063 -78.059018 
L 342.804063 -81.385138 
L 342.804063 -84.711258 
L 342.804063 -88.037378 
L 342.804063 -91.363498 
L 342.804063 -94.689619 
L 342.804063 -98.015739 
L 342.804063 -101.341859 
L 342.804063 -104.667979 
L 342.804063 -107.994099 
L 342.804063 -111.320219 
L 342.804063 -114.646339 
L 342.804063 -117.972459 
L 342.804063 -121.298579 
L 342.804063 -124.624699 
L 342.804063 -127.950819 
L 342.804063 -131.27694 
L 342.804063 -134.60306 
L 342.804063 -137.92918 
L 342.804063 -141.2553 
L 342.804063 -144.58142 
L 342.804063 -147.90754 
L 342.804063 -151.23366 
L 342.804063 -154.55978 
L 342.804063 -157.8859 
L 342.804063 -161.21202 
L 342.804063 -164.53814 
L 342.804063 -167.864261 
L 342.804063 -171.190381 
L 342.804063 -174.516501 
L 342.804063 -177.842621 
L 342.804063 -181.168741 
L 342.804063 -184.494861 
L 342.804063 -187.820981 
L 342.804063 -191.147101 
L 342.804063 -194.473221 
L 342.804063 -197.799341 
L 342.804063 -201.125461 
L 342.804063 -204.451582 
L 342.804063 -207.777702 
L 342.804063 -211.103822 
L 342.804063 -214.429942 
L 342.804063 -217.756062 
L 342.804063 -221.082182 
L 342.804063 -224.408302 
L 342.804063 -227.734422 
L 342.804063 -231.060542 
L 342.804063 -234.386662 
L 342.804063 -237.712782 
L 342.804063 -241.038903 
L 342.804063 -244.365023 
L 342.804063 -247.691143 
L 342.804063 -251.017263 
L 342.804063 -254.343383 
L 342.804063 -257.669503 
L 342.804063 -260.995623 
L 342.804063 -264.321743 
L 342.804063 -267.647863 
L 342.804063 -270.973983 
L 342.804063 -274.300103 
L 342.804063 -277.626223 
L 342.804063 -280.952344 
L 342.804063 -284.278464 
L 342.804063 -287.604584 
L 342.804063 -290.930704 
L 342.804063 -294.256824 
L 342.804063 -297.582944 
L 342.804063 -300.909064 
L 342.804063 -304.235184 
L 342.804063 -307.561304 
L 342.804063 -310.887424 
L 342.804063 -314.213544 
L 342.804063 -317.539665 
L 342.804063 -320.865785 
L 342.804063 -324.191905 
L 342.804063 -327.518025 
L 342.804063 -330.844145 
L 342.804063 -334.170265 
L 342.804063 -337.496385 
L 342.804063 -340.822505 
L 342.804063 -344.148625 
L 342.804063 -347.474745 
L 342.804063 -350.800865 
L 342.804063 -354.126986 
L 342.804063 -357.453106 
L 343.691457 -357.453106 
L 343.691457 -357.453106 
L 343.925728 -354.126986 
L 344.203035 -350.800865 
L 344.525973 -347.474745 
L 344.895923 -344.148625 
L 345.312783 -340.822505 
L 345.774761 -337.496385 
L 346.278268 -334.170265 
L 346.817939 -330.844145 
L 347.386792 -327.518025 
L 347.976528 -324.191905 
L 348.577975 -320.865785 
L 349.181623 -317.539665 
L 349.778239 -314.213544 
L 350.359495 -310.887424 
L 350.918572 -307.561304 
L 351.450678 -304.235184 
L 351.953467 -300.909064 
L 352.427318 -297.582944 
L 352.875484 -294.256824 
L 353.304119 -290.930704 
L 353.722212 -287.604584 
L 354.141462 -284.278464 
L 354.576121 -280.952344 
L 355.042838 -277.626223 
L 355.560497 -274.300103 
L 356.15005 -270.973983 
L 356.834307 -267.647863 
L 357.63764 -264.321743 
L 358.585541 -260.995623 
L 359.703993 -257.669503 
L 361.018606 -254.343383 
L 362.553514 -251.017263 
L 364.330041 -247.691143 
L 366.365204 -244.365023 
L 368.670134 -241.038903 
L 371.248538 -237.712782 
L 374.095343 -234.386662 
L 377.195657 -231.060542 
L 380.524191 -227.734422 
L 384.04523 -224.408302 
L 387.713226 -221.082182 
L 391.47401 -217.756062 
L 395.266594 -214.429942 
L 399.025442 -211.103822 
L 402.68309 -207.777702 
L 406.172923 -204.451582 
L 409.431946 -201.125461 
L 412.403351 -197.799341 
L 415.038741 -194.473221 
L 417.299889 -191.147101 
L 419.159954 -187.820981 
L 420.604128 -184.494861 
L 421.629729 -181.168741 
L 422.245767 -177.842621 
L 422.472063 -174.516501 
L 422.337969 -171.190381 
L 421.880787 -167.864261 
L 421.143931 -164.53814 
L 420.17491 -161.21202 
L 419.023185 -157.8859 
L 417.737977 -154.55978 
L 416.36608 -151.23366 
L 414.94979 -147.90754 
L 413.525016 -144.58142 
L 412.119703 -141.2553 
L 410.752649 -137.92918 
L 409.432811 -134.60306 
L 408.159177 -131.27694 
L 406.921217 -127.950819 
L 405.69992 -124.624699 
L 404.469366 -121.298579 
L 403.198734 -117.972459 
L 401.85462 -114.646339 
L 400.403523 -111.320219 
L 398.814328 -107.994099 
L 397.060617 -104.667979 
L 395.122673 -101.341859 
L 392.989046 -98.015739 
L 390.657575 -94.689619 
L 388.135833 -91.363498 
L 385.440952 -88.037378 
L 382.598879 -84.711258 
L 379.643102 -81.385138 
L 376.612958 -78.059018 
L 373.551633 -74.732898 
L 370.504004 -71.406778 
L 367.514454 -68.080658 
L 364.624825 -64.754538 
L 361.872609 -61.428418 
L 359.289505 -58.102298 
L 356.900395 -54.776177 
L 354.72279 -51.450057 
L 352.766723 -48.123937 
L 351.035074 -44.797817 
L 349.524242 -41.471697 
L 348.225095 -38.145577 
L 347.124086 -34.819457 
L 346.204448 -31.493337 
L 345.447372 -28.167217 
z
" style="stroke: #3e3e3e; stroke-width: 1.5"/>
    </defs>
    <g clip-path="url(#p511a46ef23)">
     <use xlink:href="#macf9f93e9c" x="0" y="334.182049" style="fill: #686868; stroke: #3e3e3e; stroke-width: 1.5"/>
    </g>
   </g>
   <g id="PathCollection_1"/>
   <g id="PathCollection_2"/>
   <g id="line2d_1">
    <path d="M 143.634063 243.369799 
L 143.634063 32.793467 
" clip-path="url(#p511a46ef23)" style="fill: none; stroke: #3e3e3e; stroke-width: 1.5; stroke-linecap: round"/>
   </g>
   <g id="line2d_2">
    <path d="M 143.634063 149.597526 
L 143.634063 73.921657 
" clip-path="url(#p511a46ef23)" style="fill: none; stroke: #3e3e3e; stroke-width: 4.5; stroke-linecap: round"/>
   </g>
   <g id="line2d_3">
    <path d="M 342.804063 249.950309 
L 342.804063 32.793467 
" clip-path="url(#p511a46ef23)" style="fill: none; stroke: #3e3e3e; stroke-width: 1.5; stroke-linecap: round"/>
   </g>
   <g id="line2d_4">
    <path d="M 342.804063 210.467247 
L 342.804063 134.791378 
" clip-path="url(#p511a46ef23)" style="fill: none; stroke: #3e3e3e; stroke-width: 4.5; stroke-linecap: round"/>
   </g>
   <g id="patch_5">
    <path d="M 44.049063 260.808151 
L 44.049063 21.935625 
" style="fill: none; stroke: #262626; stroke-width: 1.25; stroke-linejoin: miter; stroke-linecap: square"/>
   </g>
   <g id="patch_6">
    <path d="M 442.389063 260.808151 
L 442.389063 21.935625 
" style="fill: none; stroke: #262626; stroke-width: 1.25; stroke-linejoin: miter; stroke-linecap: square"/>
   </g>
   <g id="patch_7">
    <path d="M 44.049063 260.808151 
L 442.389063 260.808151 
" style="fill: none; stroke: #262626; stroke-width: 1.25; stroke-linejoin: miter; stroke-linecap: square"/>
   </g>
   <g id="patch_8">
    <path d="M 44.049063 21.935625 
L 442.389063 21.935625 
" style="fill: none; stroke: #262626; stroke-width: 1.25; stroke-linejoin: miter; stroke-linecap: square"/>
   </g>
   <g id="PathCollection_3">
    <defs>
     <path id="m31514e58f8" d="M 0 1.5 
C 0.397805 1.5 0.77937 1.341951 1.06066 1.06066 
C 1.341951 0.77937 1.5 0.397805 1.5 0 
C 1.5 -0.397805 1.341951 -0.77937 1.06066 -1.06066 
C 0.77937 -1.341951 0.397805 -1.5 0 -1.5 
C -0.397805 -1.5 -0.77937 -1.341951 -1.06066 -1.06066 
C -1.341951 -0.77937 -1.5 -0.397805 -1.5 0 
C -1.5 0.397805 -1.341951 0.77937 -1.06066 1.06066 
C -0.77937 1.341951 -0.397805 1.5 0 1.5 
z
" style="stroke: #3e3e3e"/>
    </defs>
    <g clip-path="url(#p511a46ef23)">
     <use xlink:href="#m31514e58f8" x="143.634063" y="101.888826" style="fill: #ffffff; stroke: #3e3e3e"/>
    </g>
   </g>
   <g id="PathCollection_4">
    <g clip-path="url(#p511a46ef23)">
     <use xlink:href="#m31514e58f8" x="342.804063" y="170.984185" style="fill: #ffffff; stroke: #3e3e3e"/>
    </g>
   </g>
   <g id="PathCollection_5">
    <defs>
     <path id="C0_0_247916bea4" d="M 0 2.5 
C 0.663008 2.5 1.29895 2.236584 1.767767 1.767767 
C 2.236584 1.29895 2.5 0.663008 2.5 -0 
C 2.5 -0.663008 2.236584 -1.29895 1.767767 -1.767767 
C 1.29895 -2.236584 0.663008 -2.5 0 -2.5 
C -0.663008 -2.5 -1.29895 -2.236584 -1.767767 -1.767767 
C -2.236584 -1.29895 -2.5 -0.663008 -2.5 0 
C -2.5 0.663008 -2.236584 1.29895 -1.767767 1.767767 
C -1.29895 2.236584 -0.663008 2.5 0 2.5 
z
"/>
    </defs>
    <g clip-path="url(#p511a46ef23)">
     <use xlink:href="#C0_0_247916bea4" x="143.634063" y="144.662143" style="fill: #4c72b0"/>
    </g>
    <g clip-path="url(#p511a46ef23)">
     <use xlink:href="#C0_0_247916bea4" x="148.884063" y="45.954488" style="fill: #4c72b0"/>
    </g>
    <g clip-path="url(#p511a46ef23)">
     <use xlink:href="#C0_0_247916bea4" x="138.384063" y="52.534998" style="fill: #4c72b0"/>
    </g>
    <g clip-path="url(#p511a46ef23)">
     <use xlink:href="#C0_0_247916bea4" x="143.634063" y="124.920612" style="fill: #4c72b0"/>
    </g>
    <g clip-path="url(#p511a46ef23)">
     <use xlink:href="#C0_0_247916bea4" x="143.634063" y="223.628268" style="fill: #4c72b0"/>
    </g>
    <g clip-path="url(#p511a46ef23)">
     <use xlink:href="#C0_0_247916bea4" x="138.384063" y="118.340102" style="fill: #4c72b0"/>
    </g>
    <g clip-path="url(#p511a46ef23)">
     <use xlink:href="#C0_0_247916bea4" x="143.634063" y="131.501122" style="fill: #4c72b0"/>
    </g>
    <g clip-path="url(#p511a46ef23)">
     <use xlink:href="#C0_0_247916bea4" x="138.384063" y="157.823164" style="fill: #4c72b0"/>
    </g>
    <g clip-path="url(#p511a46ef23)">
     <use xlink:href="#C0_0_247916bea4" x="138.384063" y="78.85704" style="fill: #4c72b0"/>
    </g>
    <g clip-path="url(#p511a46ef23)">
     <use xlink:href="#C0_0_247916bea4" x="127.884063" y="78.85704" style="fill: #4c72b0"/>
    </g>
    <g clip-path="url(#p511a46ef23)">
     <use xlink:href="#C0_0_247916bea4" x="138.384063" y="144.662143" style="fill: #4c72b0"/>
    </g>
    <g clip-path="url(#p511a46ef23)">
     <use xlink:href="#C0_0_247916bea4" x="143.634063" y="98.598571" style="fill: #4c72b0"/>
    </g>
    <g clip-path="url(#p511a46ef23)">
     <use xlink:href="#C0_0_247916bea4" x="138.384063" y="111.759591" style="fill: #4c72b0"/>
    </g>
    <g clip-path="url(#p511a46ef23)">
     <use xlink:href="#C0_0_247916bea4" x="143.634063" y="157.823164" style="fill: #4c72b0"/>
    </g>
    <g clip-path="url(#p511a46ef23)">
     <use xlink:href="#C0_0_247916bea4" x="143.634063" y="111.759591" style="fill: #4c72b0"/>
    </g>
    <g clip-path="url(#p511a46ef23)">
     <use xlink:href="#C0_0_247916bea4" x="143.634063" y="210.467247" style="fill: #4c72b0"/>
    </g>
    <g clip-path="url(#p511a46ef23)">
     <use xlink:href="#C0_0_247916bea4" x="143.634063" y="59.115509" style="fill: #4c72b0"/>
    </g>
    <g clip-path="url(#p511a46ef23)">
     <use xlink:href="#C0_0_247916bea4" x="143.634063" y="105.179081" style="fill: #4c72b0"/>
    </g>
    <g clip-path="url(#p511a46ef23)">
     <use xlink:href="#C0_0_247916bea4" x="133.134063" y="78.85704" style="fill: #4c72b0"/>
    </g>
    <g clip-path="url(#p511a46ef23)">
     <use xlink:href="#C0_0_247916bea4" x="143.634063" y="170.984185" style="fill: #4c72b0"/>
    </g>
    <g clip-path="url(#p511a46ef23)">
     <use xlink:href="#C0_0_247916bea4" x="143.634063" y="243.369799" style="fill: #4c72b0"/>
    </g>
    <g clip-path="url(#p511a46ef23)">
     <use xlink:href="#C0_0_247916bea4" x="143.634063" y="151.242654" style="fill: #4c72b0"/>
    </g>
    <g clip-path="url(#p511a46ef23)">
     <use xlink:href="#C0_0_247916bea4" x="138.384063" y="72.276529" style="fill: #4c72b0"/>
    </g>
    <g clip-path="url(#p511a46ef23)">
     <use xlink:href="#C0_0_247916bea4" x="138.384063" y="98.598571" style="fill: #4c72b0"/>
    </g>
    <g clip-path="url(#p511a46ef23)">
     <use xlink:href="#C0_0_247916bea4" x="148.884063" y="65.696019" style="fill: #4c72b0"/>
    </g>
    <g clip-path="url(#p511a46ef23)">
     <use xlink:href="#C0_0_247916bea4" x="148.884063" y="78.85704" style="fill: #4c72b0"/>
    </g>
    <g clip-path="url(#p511a46ef23)">
     <use xlink:href="#C0_0_247916bea4" x="148.884063" y="98.598571" style="fill: #4c72b0"/>
    </g>
    <g clip-path="url(#p511a46ef23)">
     <use xlink:href="#C0_0_247916bea4" x="143.634063" y="118.340102" style="fill: #4c72b0"/>
    </g>
    <g clip-path="url(#p511a46ef23)">
     <use xlink:href="#C0_0_247916bea4" x="138.384063" y="105.179081" style="fill: #4c72b0"/>
    </g>
    <g clip-path="url(#p511a46ef23)">
     <use xlink:href="#C0_0_247916bea4" x="143.634063" y="65.696019" style="fill: #4c72b0"/>
    </g>
    <g clip-path="url(#p511a46ef23)">
     <use xlink:href="#C0_0_247916bea4" x="148.884063" y="118.340102" style="fill: #4c72b0"/>
    </g>
    <g clip-path="url(#p511a46ef23)">
     <use xlink:href="#C0_0_247916bea4" x="143.634063" y="177.564695" style="fill: #4c72b0"/>
    </g>
    <g clip-path="url(#p511a46ef23)">
     <use xlink:href="#C0_0_247916bea4" x="138.384063" y="177.564695" style="fill: #4c72b0"/>
    </g>
    <g clip-path="url(#p511a46ef23)">
     <use xlink:href="#C0_0_247916bea4" x="154.134063" y="78.85704" style="fill: #4c72b0"/>
    </g>
    <g clip-path="url(#p511a46ef23)">
     <use xlink:href="#C0_0_247916bea4" x="138.384063" y="170.984185" style="fill: #4c72b0"/>
    </g>
    <g clip-path="url(#p511a46ef23)">
     <use xlink:href="#C0_0_247916bea4" x="143.634063" y="72.276529" style="fill: #4c72b0"/>
    </g>
    <g clip-path="url(#p511a46ef23)">
     <use xlink:href="#C0_0_247916bea4" x="143.634063" y="78.85704" style="fill: #4c72b0"/>
    </g>
    <g clip-path="url(#p511a46ef23)">
     <use xlink:href="#C0_0_247916bea4" x="138.384063" y="45.954488" style="fill: #4c72b0"/>
    </g>
    <g clip-path="url(#p511a46ef23)">
     <use xlink:href="#C0_0_247916bea4" x="143.634063" y="85.43755" style="fill: #4c72b0"/>
    </g>
    <g clip-path="url(#p511a46ef23)">
     <use xlink:href="#C0_0_247916bea4" x="143.634063" y="32.793467" style="fill: #4c72b0"/>
    </g>
    <g clip-path="url(#p511a46ef23)">
     <use xlink:href="#C0_0_247916bea4" x="138.384063" y="65.696019" style="fill: #4c72b0"/>
    </g>
    <g clip-path="url(#p511a46ef23)">
     <use xlink:href="#C0_0_247916bea4" x="143.634063" y="52.534998" style="fill: #4c72b0"/>
    </g>
    <g clip-path="url(#p511a46ef23)">
     <use xlink:href="#C0_0_247916bea4" x="143.634063" y="164.403674" style="fill: #4c72b0"/>
    </g>
    <g clip-path="url(#p511a46ef23)">
     <use xlink:href="#C0_0_247916bea4" x="143.634063" y="217.047757" style="fill: #4c72b0"/>
    </g>
    <g clip-path="url(#p511a46ef23)">
     <use xlink:href="#C0_0_247916bea4" x="143.634063" y="45.954488" style="fill: #4c72b0"/>
    </g>
    <g clip-path="url(#p511a46ef23)">
     <use xlink:href="#C0_0_247916bea4" x="138.384063" y="85.43755" style="fill: #4c72b0"/>
    </g>
   </g>
   <g id="PathCollection_6">
    <defs>
     <path id="C1_0_2a663ba52c" d="M 0 2.5 
C 0.663008 2.5 1.29895 2.236584 1.767767 1.767767 
C 2.236584 1.29895 2.5 0.663008 2.5 -0 
C 2.5 -0.663008 2.236584 -1.29895 1.767767 -1.767767 
C 1.29895 -2.236584 0.663008 -2.5 0 -2.5 
C -0.663008 -2.5 -1.29895 -2.236584 -1.767767 -1.767767 
C -2.236584 -1.29895 -2.5 -0.663008 -2.5 0 
C -2.5 0.663008 -2.236584 1.29895 -1.767767 1.767767 
C -1.29895 2.236584 -0.663008 2.5 0 2.5 
z
"/>
    </defs>
    <g clip-path="url(#p511a46ef23)">
     <use xlink:href="#C1_0_2a663ba52c" x="337.554063" y="177.564695" style="fill: #dd8452"/>
    </g>
    <g clip-path="url(#p511a46ef23)">
     <use xlink:href="#C1_0_2a663ba52c" x="342.804063" y="223.628268" style="fill: #dd8452"/>
    </g>
    <g clip-path="url(#p511a46ef23)">
     <use xlink:href="#C1_0_2a663ba52c" x="342.804063" y="144.662143" style="fill: #dd8452"/>
    </g>
    <g clip-path="url(#p511a46ef23)">
     <use xlink:href="#C1_0_2a663ba52c" x="337.554063" y="223.628268" style="fill: #dd8452"/>
    </g>
    <g clip-path="url(#p511a46ef23)">
     <use xlink:href="#C1_0_2a663ba52c" x="342.804063" y="157.823164" style="fill: #dd8452"/>
    </g>
    <g clip-path="url(#p511a46ef23)">
     <use xlink:href="#C1_0_2a663ba52c" x="342.804063" y="72.276529" style="fill: #dd8452"/>
    </g>
    <g clip-path="url(#p511a46ef23)">
     <use xlink:href="#C1_0_2a663ba52c" x="342.804063" y="131.501122" style="fill: #dd8452"/>
    </g>
    <g clip-path="url(#p511a46ef23)">
     <use xlink:href="#C1_0_2a663ba52c" x="337.554063" y="144.662143" style="fill: #dd8452"/>
    </g>
    <g clip-path="url(#p511a46ef23)">
     <use xlink:href="#C1_0_2a663ba52c" x="342.804063" y="197.306226" style="fill: #dd8452"/>
    </g>
    <g clip-path="url(#p511a46ef23)">
     <use xlink:href="#C1_0_2a663ba52c" x="342.804063" y="230.208778" style="fill: #dd8452"/>
    </g>
    <g clip-path="url(#p511a46ef23)">
     <use xlink:href="#C1_0_2a663ba52c" x="337.554063" y="249.950309" style="fill: #dd8452"/>
    </g>
    <g clip-path="url(#p511a46ef23)">
     <use xlink:href="#C1_0_2a663ba52c" x="337.554063" y="210.467247" style="fill: #dd8452"/>
    </g>
    <g clip-path="url(#p511a46ef23)">
     <use xlink:href="#C1_0_2a663ba52c" x="342.804063" y="249.950309" style="fill: #dd8452"/>
    </g>
    <g clip-path="url(#p511a46ef23)">
     <use xlink:href="#C1_0_2a663ba52c" x="337.554063" y="131.501122" style="fill: #dd8452"/>
    </g>
    <g clip-path="url(#p511a46ef23)">
     <use xlink:href="#C1_0_2a663ba52c" x="342.804063" y="170.984185" style="fill: #dd8452"/>
    </g>
    <g clip-path="url(#p511a46ef23)">
     <use xlink:href="#C1_0_2a663ba52c" x="342.804063" y="177.564695" style="fill: #dd8452"/>
    </g>
    <g clip-path="url(#p511a46ef23)">
     <use xlink:href="#C1_0_2a663ba52c" x="342.804063" y="105.179081" style="fill: #dd8452"/>
    </g>
    <g clip-path="url(#p511a46ef23)">
     <use xlink:href="#C1_0_2a663ba52c" x="342.804063" y="32.793467" style="fill: #dd8452"/>
    </g>
    <g clip-path="url(#p511a46ef23)">
     <use xlink:href="#C1_0_2a663ba52c" x="342.804063" y="151.242654" style="fill: #dd8452"/>
    </g>
    <g clip-path="url(#p511a46ef23)">
     <use xlink:href="#C1_0_2a663ba52c" x="342.804063" y="184.145205" style="fill: #dd8452"/>
    </g>
    <g clip-path="url(#p511a46ef23)">
     <use xlink:href="#C1_0_2a663ba52c" x="342.804063" y="243.369799" style="fill: #dd8452"/>
    </g>
    <g clip-path="url(#p511a46ef23)">
     <use xlink:href="#C1_0_2a663ba52c" x="337.554063" y="170.984185" style="fill: #dd8452"/>
    </g>
    <g clip-path="url(#p511a46ef23)">
     <use xlink:href="#C1_0_2a663ba52c" x="348.054063" y="131.501122" style="fill: #dd8452"/>
    </g>
    <g clip-path="url(#p511a46ef23)">
     <use xlink:href="#C1_0_2a663ba52c" x="337.554063" y="157.823164" style="fill: #dd8452"/>
    </g>
    <g clip-path="url(#p511a46ef23)">
     <use xlink:href="#C1_0_2a663ba52c" x="342.804063" y="210.467247" style="fill: #dd8452"/>
    </g>
    <g clip-path="url(#p511a46ef23)">
     <use xlink:href="#C1_0_2a663ba52c" x="332.304063" y="131.501122" style="fill: #dd8452"/>
    </g>
   </g>
   <g id="text_13">
    <!-- Strip Plot with Hemi Violin of Age by Disease with Hue Change at 65 -->
    <g style="fill: #262626" transform="translate(61.904688 15.935625) scale(0.12 -0.12)">
     <defs>
      <path id="ArialMT-53" d="M 288 1472 
L 859 1522 
Q 900 1178 1048 958 
Q 1197 738 1509 602 
Q 1822 466 2213 466 
Q 2559 466 2825 569 
Q 3091 672 3220 851 
Q 3350 1031 3350 1244 
Q 3350 1459 3225 1620 
Q 3100 1781 2813 1891 
Q 2628 1963 1997 2114 
Q 1366 2266 1113 2400 
Q 784 2572 623 2826 
Q 463 3081 463 3397 
Q 463 3744 659 4045 
Q 856 4347 1234 4503 
Q 1613 4659 2075 4659 
Q 2584 4659 2973 4495 
Q 3363 4331 3572 4012 
Q 3781 3694 3797 3291 
L 3216 3247 
Q 3169 3681 2898 3903 
Q 2628 4125 2100 4125 
Q 1550 4125 1298 3923 
Q 1047 3722 1047 3438 
Q 1047 3191 1225 3031 
Q 1400 2872 2139 2705 
Q 2878 2538 3153 2413 
Q 3553 2228 3743 1945 
Q 3934 1663 3934 1294 
Q 3934 928 3725 604 
Q 3516 281 3123 101 
Q 2731 -78 2241 -78 
Q 1619 -78 1198 103 
Q 778 284 539 648 
Q 300 1013 288 1472 
z
" transform="scale(0.015625)"/>
      <path id="ArialMT-74" d="M 1650 503 
L 1731 6 
Q 1494 -44 1306 -44 
Q 1000 -44 831 53 
Q 663 150 594 308 
Q 525 466 525 972 
L 525 2881 
L 113 2881 
L 113 3319 
L 525 3319 
L 525 4141 
L 1084 4478 
L 1084 3319 
L 1650 3319 
L 1650 2881 
L 1084 2881 
L 1084 941 
Q 1084 700 1114 631 
Q 1144 563 1211 522 
Q 1278 481 1403 481 
Q 1497 481 1650 503 
z
" transform="scale(0.015625)"/>
      <path id="ArialMT-70" d="M 422 -1272 
L 422 3319 
L 934 3319 
L 934 2888 
Q 1116 3141 1344 3267 
Q 1572 3394 1897 3394 
Q 2322 3394 2647 3175 
Q 2972 2956 3137 2557 
Q 3303 2159 3303 1684 
Q 3303 1175 3120 767 
Q 2938 359 2589 142 
Q 2241 -75 1856 -75 
Q 1575 -75 1351 44 
Q 1128 163 984 344 
L 984 -1272 
L 422 -1272 
z
M 931 1641 
Q 931 1000 1190 694 
Q 1450 388 1819 388 
Q 2194 388 2461 705 
Q 2728 1022 2728 1688 
Q 2728 2322 2467 2637 
Q 2206 2953 1844 2953 
Q 1484 2953 1207 2617 
Q 931 2281 931 1641 
z
" transform="scale(0.015625)"/>
      <path id="ArialMT-20" transform="scale(0.015625)"/>
      <path id="ArialMT-77" d="M 1034 0 
L 19 3319 
L 600 3319 
L 1128 1403 
L 1325 691 
Q 1338 744 1497 1375 
L 2025 3319 
L 2603 3319 
L 3100 1394 
L 3266 759 
L 3456 1400 
L 4025 3319 
L 4572 3319 
L 3534 0 
L 2950 0 
L 2422 1988 
L 2294 2553 
L 1622 0 
L 1034 0 
z
" transform="scale(0.015625)"/>
      <path id="ArialMT-48" d="M 513 0 
L 513 4581 
L 1119 4581 
L 1119 2700 
L 3500 2700 
L 3500 4581 
L 4106 4581 
L 4106 0 
L 3500 0 
L 3500 2159 
L 1119 2159 
L 1119 0 
L 513 0 
z
" transform="scale(0.015625)"/>
      <path id="ArialMT-56" d="M 1803 0 
L 28 4581 
L 684 4581 
L 1875 1253 
Q 2019 853 2116 503 
Q 2222 878 2363 1253 
L 3600 4581 
L 4219 4581 
L 2425 0 
L 1803 0 
z
" transform="scale(0.015625)"/>
      <path id="ArialMT-66" d="M 556 0 
L 556 2881 
L 59 2881 
L 59 3319 
L 556 3319 
L 556 3672 
Q 556 4006 616 4169 
Q 697 4388 901 4523 
Q 1106 4659 1475 4659 
Q 1713 4659 2000 4603 
L 1916 4113 
Q 1741 4144 1584 4144 
Q 1328 4144 1222 4034 
Q 1116 3925 1116 3625 
L 1116 3319 
L 1763 3319 
L 1763 2881 
L 1116 2881 
L 1116 0 
L 556 0 
z
" transform="scale(0.015625)"/>
      <path id="ArialMT-62" d="M 941 0 
L 419 0 
L 419 4581 
L 981 4581 
L 981 2947 
Q 1338 3394 1891 3394 
Q 2197 3394 2470 3270 
Q 2744 3147 2920 2923 
Q 3097 2700 3197 2384 
Q 3297 2069 3297 1709 
Q 3297 856 2875 390 
Q 2453 -75 1863 -75 
Q 1275 -75 941 416 
L 941 0 
z
M 934 1684 
Q 934 1088 1097 822 
Q 1363 388 1816 388 
Q 2184 388 2453 708 
Q 2722 1028 2722 1663 
Q 2722 2313 2464 2622 
Q 2206 2931 1841 2931 
Q 1472 2931 1203 2611 
Q 934 2291 934 1684 
z
" transform="scale(0.015625)"/>
      <path id="ArialMT-79" d="M 397 -1278 
L 334 -750 
Q 519 -800 656 -800 
Q 844 -800 956 -737 
Q 1069 -675 1141 -563 
Q 1194 -478 1313 -144 
Q 1328 -97 1363 -6 
L 103 3319 
L 709 3319 
L 1400 1397 
Q 1534 1031 1641 628 
Q 1738 1016 1872 1384 
L 2581 3319 
L 3144 3319 
L 1881 -56 
Q 1678 -603 1566 -809 
Q 1416 -1088 1222 -1217 
Q 1028 -1347 759 -1347 
Q 597 -1347 397 -1278 
z
" transform="scale(0.015625)"/>
      <path id="ArialMT-75" d="M 2597 0 
L 2597 488 
Q 2209 -75 1544 -75 
Q 1250 -75 995 37 
Q 741 150 617 320 
Q 494 491 444 738 
Q 409 903 409 1263 
L 409 3319 
L 972 3319 
L 972 1478 
Q 972 1038 1006 884 
Q 1059 663 1231 536 
Q 1403 409 1656 409 
Q 1909 409 2131 539 
Q 2353 669 2445 892 
Q 2538 1116 2538 1541 
L 2538 3319 
L 3100 3319 
L 3100 0 
L 2597 0 
z
" transform="scale(0.015625)"/>
      <path id="ArialMT-43" d="M 3763 1606 
L 4369 1453 
Q 4178 706 3683 314 
Q 3188 -78 2472 -78 
Q 1731 -78 1267 223 
Q 803 525 561 1097 
Q 319 1669 319 2325 
Q 319 3041 592 3573 
Q 866 4106 1370 4382 
Q 1875 4659 2481 4659 
Q 3169 4659 3637 4309 
Q 4106 3959 4291 3325 
L 3694 3184 
Q 3534 3684 3231 3912 
Q 2928 4141 2469 4141 
Q 1941 4141 1586 3887 
Q 1231 3634 1087 3207 
Q 944 2781 944 2328 
Q 944 1744 1114 1308 
Q 1284 872 1643 656 
Q 2003 441 2422 441 
Q 2931 441 3284 734 
Q 3638 1028 3763 1606 
z
" transform="scale(0.015625)"/>
     </defs>
     <use xlink:href="#ArialMT-53"/>
     <use xlink:href="#ArialMT-74" x="66.699219"/>
     <use xlink:href="#ArialMT-72" x="94.482422"/>
     <use xlink:href="#ArialMT-69" x="127.783203"/>
     <use xlink:href="#ArialMT-70" x="150"/>
     <use xlink:href="#ArialMT-20" x="205.615234"/>
     <use xlink:href="#ArialMT-50" x="233.398438"/>
     <use xlink:href="#ArialMT-6c" x="300.097656"/>
     <use xlink:href="#ArialMT-6f" x="322.314453"/>
     <use xlink:href="#ArialMT-74" x="377.929688"/>
     <use xlink:href="#ArialMT-20" x="405.712891"/>
     <use xlink:href="#ArialMT-77" x="433.496094"/>
     <use xlink:href="#ArialMT-69" x="505.712891"/>
     <use xlink:href="#ArialMT-74" x="527.929688"/>
     <use xlink:href="#ArialMT-68" x="555.712891"/>
     <use xlink:href="#ArialMT-20" x="611.328125"/>
     <use xlink:href="#ArialMT-48" x="639.111328"/>
     <use xlink:href="#ArialMT-65" x="711.328125"/>
     <use xlink:href="#ArialMT-6d" x="766.943359"/>
     <use xlink:href="#ArialMT-69" x="850.244141"/>
     <use xlink:href="#ArialMT-20" x="872.460938"/>
     <use xlink:href="#ArialMT-56" x="900.244141"/>
     <use xlink:href="#ArialMT-69" x="965.193359"/>
     <use xlink:href="#ArialMT-6f" x="987.410156"/>
     <use xlink:href="#ArialMT-6c" x="1043.025391"/>
     <use xlink:href="#ArialMT-69" x="1065.242188"/>
     <use xlink:href="#ArialMT-6e" x="1087.458984"/>
     <use xlink:href="#ArialMT-20" x="1143.074219"/>
     <use xlink:href="#ArialMT-6f" x="1170.857422"/>
     <use xlink:href="#ArialMT-66" x="1226.472656"/>
     <use xlink:href="#ArialMT-20" x="1254.255859"/>
     <use xlink:href="#ArialMT-41" x="1276.539062"/>
     <use xlink:href="#ArialMT-67" x="1343.238281"/>
     <use xlink:href="#ArialMT-65" x="1398.853516"/>
     <use xlink:href="#ArialMT-20" x="1454.46875"/>
     <use xlink:href="#ArialMT-62" x="1482.251953"/>
     <use xlink:href="#ArialMT-79" x="1537.867188"/>
     <use xlink:href="#ArialMT-20" x="1587.867188"/>
     <use xlink:href="#ArialMT-44" x="1615.650391"/>
     <use xlink:href="#ArialMT-69" x="1687.867188"/>
     <use xlink:href="#ArialMT-73" x="1710.083984"/>
     <use xlink:href="#ArialMT-65" x="1760.083984"/>
     <use xlink:href="#ArialMT-61" x="1815.699219"/>
     <use xlink:href="#ArialMT-73" x="1871.314453"/>
     <use xlink:href="#ArialMT-65" x="1921.314453"/>
     <use xlink:href="#ArialMT-20" x="1976.929688"/>
     <use xlink:href="#ArialMT-77" x="2004.712891"/>
     <use xlink:href="#ArialMT-69" x="2076.929688"/>
     <use xlink:href="#ArialMT-74" x="2099.146484"/>
     <use xlink:href="#ArialMT-68" x="2126.929688"/>
     <use xlink:href="#ArialMT-20" x="2182.544922"/>
     <use xlink:href="#ArialMT-48" x="2210.328125"/>
     <use xlink:href="#ArialMT-75" x="2282.544922"/>
     <use xlink:href="#ArialMT-65" x="2338.160156"/>
     <use xlink:href="#ArialMT-20" x="2393.775391"/>
     <use xlink:href="#ArialMT-43" x="2421.558594"/>
     <use xlink:href="#ArialMT-68" x="2493.775391"/>
     <use xlink:href="#ArialMT-61" x="2549.390625"/>
     <use xlink:href="#ArialMT-6e" x="2605.005859"/>
     <use xlink:href="#ArialMT-67" x="2660.621094"/>
     <use xlink:href="#ArialMT-65" x="2716.236328"/>
     <use xlink:href="#ArialMT-20" x="2771.851562"/>
     <use xlink:href="#ArialMT-61" x="2799.634766"/>
     <use xlink:href="#ArialMT-74" x="2855.25"/>
     <use xlink:href="#ArialMT-20" x="2883.033203"/>
     <use xlink:href="#ArialMT-36" x="2910.816406"/>
     <use xlink:href="#ArialMT-35" x="2966.431641"/>
    </g>
   </g>
   <g id="legend_1">
    <g id="patch_9">
     <path d="M 350.576875 109.449375 
L 434.689063 109.449375 
Q 436.889063 109.449375 436.889063 107.249375 
L 436.889063 29.635625 
Q 436.889063 27.435625 434.689063 27.435625 
L 350.576875 27.435625 
Q 348.376875 27.435625 348.376875 29.635625 
L 348.376875 107.249375 
Q 348.376875 109.449375 350.576875 109.449375 
z
" style="fill: #ffffff; opacity: 0.8; stroke: #cccccc; stroke-linejoin: miter"/>
    </g>
    <g id="text_14">
     <!-- Disease -->
     <g style="fill: #262626" transform="translate(370.957031 40.425) scale(0.12 -0.12)">
      <use xlink:href="#ArialMT-44"/>
      <use xlink:href="#ArialMT-69" x="72.216797"/>
      <use xlink:href="#ArialMT-73" x="94.433594"/>
      <use xlink:href="#ArialMT-65" x="144.433594"/>
      <use xlink:href="#ArialMT-61" x="200.048828"/>
      <use xlink:href="#ArialMT-73" x="255.664062"/>
      <use xlink:href="#ArialMT-65" x="305.664062"/>
     </g>
    </g>
    <g id="patch_10">
     <path d="M 352.776875 56.183594 
L 374.776875 56.183594 
L 374.776875 48.483594 
L 352.776875 48.483594 
z
" style="fill: #c6c6c6; stroke: #3e3e3e; stroke-width: 0.75; stroke-linejoin: miter"/>
    </g>
    <g id="text_15">
     <!-- Alzheimer -->
     <g style="fill: #262626" transform="translate(383.576875 56.183594) scale(0.11 -0.11)">
      <use xlink:href="#ArialMT-41"/>
      <use xlink:href="#ArialMT-6c" x="66.699219"/>
      <use xlink:href="#ArialMT-7a" x="88.916016"/>
      <use xlink:href="#ArialMT-68" x="138.916016"/>
      <use xlink:href="#ArialMT-65" x="194.53125"/>
      <use xlink:href="#ArialMT-69" x="250.146484"/>
      <use xlink:href="#ArialMT-6d" x="272.363281"/>
      <use xlink:href="#ArialMT-65" x="355.664062"/>
      <use xlink:href="#ArialMT-72" x="411.279297"/>
     </g>
    </g>
    <g id="patch_11">
     <path d="M 352.776875 71.743437 
L 374.776875 71.743437 
L 374.776875 64.043437 
L 352.776875 64.043437 
z
" style="fill: #686868; stroke: #3e3e3e; stroke-width: 0.75; stroke-linejoin: miter"/>
    </g>
    <g id="text_16">
     <!-- Parkinson -->
     <g style="fill: #262626" transform="translate(383.576875 71.743437) scale(0.11 -0.11)">
      <use xlink:href="#ArialMT-50"/>
      <use xlink:href="#ArialMT-61" x="66.699219"/>
      <use xlink:href="#ArialMT-72" x="122.314453"/>
      <use xlink:href="#ArialMT-6b" x="155.615234"/>
      <use xlink:href="#ArialMT-69" x="205.615234"/>
      <use xlink:href="#ArialMT-6e" x="227.832031"/>
      <use xlink:href="#ArialMT-73" x="283.447266"/>
      <use xlink:href="#ArialMT-6f" x="333.447266"/>
      <use xlink:href="#ArialMT-6e" x="389.0625"/>
     </g>
    </g>
    <g id="PathCollection_7">
     <defs>
      <path id="m9956469a1c" d="M 0 3 
C 0.795609 3 1.55874 2.683901 2.12132 2.12132 
C 2.683901 1.55874 3 0.795609 3 0 
C 3 -0.795609 2.683901 -1.55874 2.12132 -2.12132 
C 1.55874 -2.683901 0.795609 -3 0 -3 
C -0.795609 -3 -1.55874 -2.683901 -2.12132 -2.12132 
C -2.683901 -1.55874 -3 -0.795609 -3 0 
C -3 0.795609 -2.683901 1.55874 -2.12132 2.12132 
C -1.55874 2.683901 -0.795609 3 0 3 
z
" style="stroke: #4c72b0"/>
     </defs>
     <g>
      <use xlink:href="#m9956469a1c" x="363.776875" y="84.415781" style="fill: #4c72b0; stroke: #4c72b0"/>
     </g>
    </g>
    <g id="text_17">
     <!-- Alzheimer -->
     <g style="fill: #262626" transform="translate(383.576875 87.303281) scale(0.11 -0.11)">
      <use xlink:href="#ArialMT-41"/>
      <use xlink:href="#ArialMT-6c" x="66.699219"/>
      <use xlink:href="#ArialMT-7a" x="88.916016"/>
      <use xlink:href="#ArialMT-68" x="138.916016"/>
      <use xlink:href="#ArialMT-65" x="194.53125"/>
      <use xlink:href="#ArialMT-69" x="250.146484"/>
      <use xlink:href="#ArialMT-6d" x="272.363281"/>
      <use xlink:href="#ArialMT-65" x="355.664062"/>
      <use xlink:href="#ArialMT-72" x="411.279297"/>
     </g>
    </g>
    <g id="PathCollection_8">
     <defs>
      <path id="m41dbe559c4" d="M 0 3 
C 0.795609 3 1.55874 2.683901 2.12132 2.12132 
C 2.683901 1.55874 3 0.795609 3 0 
C 3 -0.795609 2.683901 -1.55874 2.12132 -2.12132 
C 1.55874 -2.683901 0.795609 -3 0 -3 
C -0.795609 -3 -1.55874 -2.683901 -2.12132 -2.12132 
C -2.683901 -1.55874 -3 -0.795609 -3 0 
C -3 0.795609 -2.683901 1.55874 -2.12132 2.12132 
C -1.55874 2.683901 -0.795609 3 0 3 
z
" style="stroke: #dd8452"/>
     </defs>
     <g>
      <use xlink:href="#m41dbe559c4" x="363.776875" y="99.975625" style="fill: #dd8452; stroke: #dd8452"/>
     </g>
    </g>
    <g id="text_18">
     <!-- Parkinson -->
     <g style="fill: #262626" transform="translate(383.576875 102.863125) scale(0.11 -0.11)">
      <use xlink:href="#ArialMT-50"/>
      <use xlink:href="#ArialMT-61" x="66.699219"/>
      <use xlink:href="#ArialMT-72" x="122.314453"/>
      <use xlink:href="#ArialMT-6b" x="155.615234"/>
      <use xlink:href="#ArialMT-69" x="205.615234"/>
      <use xlink:href="#ArialMT-6e" x="227.832031"/>
      <use xlink:href="#ArialMT-73" x="283.447266"/>
      <use xlink:href="#ArialMT-6f" x="333.447266"/>
      <use xlink:href="#ArialMT-6e" x="389.0625"/>
     </g>
    </g>
   </g>
  </g>
 </g>
 <defs>
  <clipPath id="p511a46ef23">
   <rect x="44.049063" y="21.935625" width="398.34" height="238.872526"/>
  </clipPath>
 </defs>
</svg>
